<svg width="20" height="17" viewBox="0 0 20 17" fill="none" xmlns="http://www.w3.org/2000/svg">
<path id="Vector" d="M17.6302 1.81249C16.6319 0.811659 15.3087 0.200809 13.8995 0.0902814C12.4902 -0.0202461 11.0879 0.376837 9.94588 1.2098C8.74771 0.318613 7.25637 -0.0854953 5.77219 0.078856C4.288 0.243207 2.92121 0.96381 1.94705 2.09555C0.972891 3.22729 0.463728 4.68611 0.522094 6.17823C0.580459 7.67035 1.20202 9.08493 2.2616 10.1371L8.10956 15.9945C8.59926 16.4764 9.2588 16.7466 9.94588 16.7466C10.633 16.7466 11.2925 16.4764 11.7822 15.9945L17.6302 10.1371C18.7297 9.03088 19.3468 7.53452 19.3468 5.97481C19.3468 4.41509 18.7297 2.91874 17.6302 1.81249ZM16.3024 8.83758L10.4544 14.6855C10.3879 14.7527 10.3086 14.8061 10.2214 14.8425C10.1341 14.8789 10.0404 14.8976 9.94588 14.8976C9.85131 14.8976 9.75768 14.8789 9.67039 14.8425C9.58311 14.8061 9.50391 14.7527 9.43736 14.6855L3.5894 8.80933C2.85088 8.05441 2.43733 7.04031 2.43733 5.98423C2.43733 4.92814 2.85088 3.91404 3.5894 3.15912C4.34196 2.41611 5.35695 1.99948 6.4145 1.99948C7.47206 1.99948 8.48704 2.41611 9.2396 3.15912C9.32715 3.24739 9.4313 3.31744 9.54605 3.36525C9.66081 3.41306 9.78389 3.43768 9.90821 3.43768C10.0325 3.43768 10.1556 3.41306 10.2704 3.36525C10.3851 3.31744 10.4893 3.24739 10.5768 3.15912C11.3294 2.41611 12.3444 1.99948 13.4019 1.99948C14.4595 1.99948 15.4745 2.41611 16.227 3.15912C16.9757 3.90415 17.4028 4.91275 17.4169 5.96886C17.431 7.02497 17.0309 8.0446 16.3024 8.80933V8.83758Z" fill="#E2315C"/>
</svg>
