<svg width="22" height="15" viewBox="0 0 22 15" fill="none" xmlns="http://www.w3.org/2000/svg">
<g id="Group 198">
<path id="Vector" d="M11.2525 1.39453C7.97686 1.39453 4.61674 3.2904 1.97152 7.08214C1.89601 7.19157 1.85464 7.32091 1.85262 7.45384C1.8506 7.58677 1.88802 7.71731 1.96017 7.82898C3.99263 11.0105 7.30778 13.4985 11.2525 13.4985C15.1544 13.4985 18.5376 11.0029 20.5738 7.81427C20.6443 7.70479 20.6818 7.57735 20.6818 7.44716C20.6818 7.31696 20.6443 7.18952 20.5738 7.08004C18.533 3.92796 15.1249 1.39453 11.2525 1.39453Z" stroke="#4FC9E0" stroke-width="1.76524" stroke-linecap="round" stroke-linejoin="round"/>
<path id="Vector_2" d="M11.2665 10.8084C13.1234 10.8084 14.6287 9.30311 14.6287 7.4462C14.6287 5.5893 13.1234 4.08398 11.2665 4.08398C9.40961 4.08398 7.9043 5.5893 7.9043 7.4462C7.9043 9.30311 9.40961 10.8084 11.2665 10.8084Z" stroke="#4FC9E0" stroke-width="1.76524" stroke-miterlimit="10"/>
</g>
</svg>
