<svg width="32" height="30" viewBox="0 0 32 30" fill="none" xmlns="http://www.w3.org/2000/svg">
<g id="Style/Star Half" clip-path="url(#clip0_373_260)">
<path id="Star Background" d="M16.8246 25.2578C16.3542 24.9727 15.7643 24.9728 15.294 25.2579L8.07988 29.6304C6.96172 30.3081 5.57941 29.3054 5.87654 28.0321L7.7891 19.8357C7.91335 19.3033 7.7332 18.7457 7.32086 18.3867L0.970846 12.8567C-0.0127637 12.0002 0.516009 10.3822 1.81564 10.2719L10.184 9.56125C10.729 9.51497 11.2037 9.17129 11.4178 8.66805L14.702 0.949277C15.2117 -0.248718 16.9097 -0.248717 17.4195 0.949279L20.7036 8.66805C20.9177 9.17129 21.3925 9.51497 21.9374 9.56125L30.3058 10.2719C31.6054 10.3822 32.1342 12.0002 31.1506 12.8567L24.8006 18.3867C24.3882 18.7457 24.2081 19.3033 24.3323 19.8357L26.245 28.0326C26.5421 29.3059 25.16 30.3086 24.0418 29.631L16.8246 25.2578Z" fill="white"/>
<mask id="mask0_373_260" style="mask-type:alpha" maskUnits="userSpaceOnUse" x="0" y="0" width="32" height="30">
<path id="Star Mask" d="M16.8246 25.2578C16.3542 24.9727 15.7643 24.9728 15.294 25.2579L8.07988 29.6304C6.96172 30.3081 5.57941 29.3054 5.87654 28.0321L7.7891 19.8357C7.91335 19.3033 7.7332 18.7457 7.32086 18.3867L0.970846 12.8567C-0.0127637 12.0002 0.516009 10.3822 1.81564 10.2719L10.184 9.56125C10.729 9.51497 11.2037 9.17129 11.4178 8.66805L14.702 0.949277C15.2117 -0.248718 16.9097 -0.248717 17.4195 0.949279L20.7036 8.66805C20.9177 9.17129 21.3925 9.51497 21.9374 9.56125L30.3058 10.2719C31.6054 10.3822 32.1342 12.0002 31.1506 12.8567L24.8006 18.3867C24.3882 18.7457 24.2081 19.3033 24.3323 19.8357L26.245 28.0326C26.5421 29.3059 25.16 30.3086 24.0418 29.631L16.8246 25.2578Z" fill="#E0E8F1"/>
</mask>
<g mask="url(#mask0_373_260)">
<rect id="Star Color" x="0.461914" y="0.0507812" width="15.5988" height="29.795" fill="#FFC500"/>
</g>
</g>
<defs>
<clipPath id="clip0_373_260">
<rect width="31.1976" height="29.8977" fill="white" transform="translate(0.461914 0.0507812)"/>
</clipPath>
</defs>
</svg>
