<svg width="32" height="30" viewBox="0 0 32 30" fill="none" xmlns="http://www.w3.org/2000/svg">
<g id="Style/Star Light Gray" clip-path="url(#clip0_373_264)">
<path id="Star" d="M16.9544 24.6797C16.4841 24.3946 15.8942 24.3947 15.4239 24.6797L8.20977 29.0522C7.0916 29.73 5.7093 28.7272 6.00642 27.4539L7.91899 19.2576C8.04324 18.7251 7.86308 18.1676 7.45074 17.8085L1.10073 12.2786C0.117119 11.422 0.645892 9.80412 1.94552 9.69376L10.3139 8.98312C10.8588 8.93685 11.3336 8.59317 11.5477 8.08992L14.8319 0.371152C15.3416 -0.826843 17.0396 -0.826842 17.5493 0.371154L20.8335 8.08992C21.0476 8.59317 21.5224 8.93685 22.0673 8.98312L30.4357 9.69376C31.7353 9.80412 32.2641 11.422 31.2805 12.2786L24.9305 17.8085C24.5181 18.1676 24.338 18.7252 24.4622 19.2576L26.3749 27.4545C26.672 28.7277 25.2899 29.7305 24.1717 29.0529L16.9544 24.6797Z" fill="white"/>
</g>
<defs>
<clipPath id="clip0_373_264">
<rect width="31.1976" height="29.8977" fill="white" transform="translate(0.591797 0.0507812)"/>
</clipPath>
</defs>
</svg>
