<svg width="32" height="30" viewBox="0 0 32 30" fill="none" xmlns="http://www.w3.org/2000/svg">
<g id="Style/Star" clip-path="url(#clip0_373_254)">
<path id="Star" d="M16.433 25.2578C15.9626 24.9727 15.3727 24.9728 14.9024 25.2579L7.68828 29.6304C6.57012 30.3081 5.18781 29.3054 5.48493 28.0321L7.3975 19.8357C7.52175 19.3033 7.34159 18.7457 6.92926 18.3867L0.579244 12.8567C-0.404365 12.0002 0.124408 10.3822 1.42403 10.2719L9.79243 9.56125C10.3374 9.51497 10.8121 9.17129 11.0262 8.66805L14.3104 0.949277C14.8201 -0.248718 16.5181 -0.248717 17.0279 0.949279L20.312 8.66805C20.5261 9.17129 21.0009 9.51497 21.5458 9.56125L29.9142 10.2719C31.2138 10.3822 31.7426 12.0002 30.759 12.8567L24.409 18.3867C23.9966 18.7457 23.8165 19.3033 23.9407 19.8357L25.8534 28.0326C26.1505 29.3059 24.7684 30.3086 23.6502 29.631L16.433 25.2578Z" fill="#FFC500"/>
</g>
<defs>
<clipPath id="clip0_373_254">
<rect width="31.1976" height="29.8977" fill="white" transform="translate(0.0703125 0.0507812)"/>
</clipPath>
</defs>
</svg>
