<svg width="20" height="19" viewBox="0 0 20 19" fill="none" xmlns="http://www.w3.org/2000/svg">
<g id="Call" clip-path="url(#clip0_1229_4454)">
<path id="Vector" d="M15.8635 11.1849C14.8847 11.1849 13.9377 11.0341 13.0544 10.7627C12.7759 10.6723 12.4655 10.7401 12.2506 10.9437L11.0013 12.4289C8.74917 11.4111 6.64033 9.48863 5.51827 7.27969L7.07006 6.0282C7.28492 5.81711 7.34858 5.52309 7.26105 5.25922C6.9666 4.42238 6.8154 3.52523 6.8154 2.59793C6.8154 2.19082 6.4573 1.85156 6.02757 1.85156H3.27414C2.84441 1.85156 2.32715 2.0325 2.32715 2.59793C2.32715 9.60172 8.47861 15.4219 15.8635 15.4219C16.4285 15.4219 16.6514 14.9469 16.6514 14.5323V11.9313C16.6514 11.5242 16.2933 11.1849 15.8635 11.1849Z" fill="#083B46"/>
</g>
<defs>
<clipPath id="clip0_1229_4454">
<rect width="19" height="18" fill="white" transform="translate(0.101562 0.460938)"/>
</clipPath>
</defs>
</svg>
