<svg width="18" height="17" viewBox="0 0 18 17" fill="none" xmlns="http://www.w3.org/2000/svg">
<g clip-path="url(#clip0_1845_5015)">
<path d="M9.30123 2.22949H9.39427C10.2536 2.23263 14.6076 2.26399 15.7816 2.5797C16.1365 2.67605 16.4599 2.86386 16.7195 3.12436C16.9791 3.38485 17.1658 3.70892 17.2609 4.06416C17.3664 4.46141 17.4407 4.98724 17.4908 5.5298L17.5013 5.63852L17.5243 5.91032L17.5327 6.01904C17.6006 6.97453 17.609 7.86939 17.61 8.06488V8.14328C17.609 8.34609 17.5996 9.30158 17.5243 10.2968L17.5159 10.4066L17.5065 10.5153C17.4543 11.1132 17.3769 11.707 17.2609 12.144C17.1658 12.4992 16.9791 12.8233 16.7195 13.0838C16.4599 13.3443 16.1365 13.5321 15.7816 13.6285C14.569 13.9546 9.95983 13.9776 9.32109 13.9787H9.17264C8.84962 13.9787 7.51361 13.9724 6.11278 13.9243L5.93506 13.918L5.84411 13.9139L5.66535 13.9065L5.48659 13.8992C4.3262 13.848 3.22122 13.7654 2.71211 13.6274C2.35734 13.5312 2.03402 13.3435 1.77445 13.0832C1.51488 12.8229 1.32814 12.4991 1.23288 12.144C1.11684 11.7081 1.03948 11.1132 0.987214 10.5153L0.978851 10.4055L0.970488 10.2968C0.918598 9.58845 0.890009 8.87859 0.884766 8.16837L0.884766 8.03979C0.886856 7.81503 0.89522 7.0383 0.951671 6.18108L0.958989 6.0734L0.962125 6.01904L0.970488 5.91032L0.993487 5.63852L1.00394 5.5298C1.05412 4.98724 1.12834 4.46036 1.23393 4.06416C1.32903 3.70892 1.51569 3.38485 1.77527 3.12436C2.03485 2.86386 2.35826 2.67605 2.71316 2.5797C3.22227 2.4438 4.32725 2.36017 5.48763 2.3079L5.66535 2.30058L5.84516 2.29431L5.93506 2.29117L6.11382 2.28385C7.10873 2.25187 8.10405 2.23409 9.09947 2.23054L9.30123 2.22949ZM7.57528 5.58521V10.6219L11.921 8.1046L7.57528 5.58521Z" fill="#083B46"/>
</g>
<defs>
<clipPath id="clip0_1845_5015">
<rect width="16.7263" height="16.7263" fill="white" transform="translate(0.884399 0.136963)"/>
</clipPath>
</defs>
</svg>
