<svg width="20" height="20" viewBox="0 0 20 20" fill="none" xmlns="http://www.w3.org/2000/svg">
<g id="Link" clip-path="url(#clip0_931_2739)">
<path id="Vector" d="M5.13867 10.4V7.19064H7.4947C7.4947 7.19064 7.4947 6.91237 7.4947 6.35583C7.4947 5.79929 7.4947 5.16236 7.4947 4.44504C7.4947 3.91323 7.58436 3.39689 7.76369 2.896C7.94302 2.39511 8.22129 1.95297 8.5985 1.56958C8.97571 1.18618 9.45187 0.880083 10.027 0.651283C10.6021 0.422483 11.2915 0.308083 12.0954 0.308083C12.7509 0.308083 13.292 0.329725 13.7187 0.373013L14.3587 0.437943L14.2845 3.44326L13.663 3.43399C13.2487 3.4278 12.7695 3.42471 12.2253 3.42471C11.6564 3.42471 11.2915 3.55148 11.1308 3.80502C10.97 4.05855 10.8896 4.40794 10.8896 4.85317C10.8896 4.90264 10.8896 4.93974 10.8896 4.96448V5.00158C10.8896 5.12526 10.8896 5.35406 10.8896 5.68798C10.8896 6.0219 10.8896 6.52279 10.8896 7.19064H14.3773L14.2288 10.4H10.8896V19.3047H7.4947V10.4H5.13867Z" fill="#083B46"/>
</g>
<defs>
<clipPath id="clip0_931_2739">
<rect width="19.516" height="19.516" fill="white" transform="matrix(1 0 0 -1 0 19.75)"/>
</clipPath>
</defs>
</svg>
