<svg width="14" height="15" viewBox="0 0 14 15" fill="none" xmlns="http://www.w3.org/2000/svg">
<path d="M6.8439 0.809326C5.02826 0.809326 4.79995 0.817689 4.08657 0.849469C3.37319 0.882922 2.88729 0.994988 2.46161 1.16058C2.01489 1.32811 1.61036 1.59161 1.27655 1.9325C0.935669 2.2663 0.672169 2.67083 0.504634 3.11756C0.339043 3.5424 0.226141 4.02914 0.193524 4.74001C0.161744 5.45506 0.153381 5.68253 0.153381 7.50068C0.153381 9.31716 0.161744 9.54463 0.193524 10.258C0.226977 10.9706 0.339043 11.4565 0.504634 11.8821C0.676078 12.322 0.904392 12.695 1.27655 13.0672C1.64788 13.4394 2.02087 13.6685 2.46077 13.8391C2.88729 14.0047 3.37236 14.1176 4.0849 14.1502C4.79911 14.182 5.02659 14.1904 6.8439 14.1904C8.66121 14.1904 8.88785 14.182 9.60207 14.1502C10.3138 14.1168 10.8013 14.0047 11.227 13.8391C11.6734 13.6715 12.0777 13.408 12.4112 13.0672C12.7834 12.695 13.0117 12.322 13.1832 11.8821C13.3479 11.4565 13.4608 10.9706 13.4943 10.258C13.5261 9.54463 13.5344 9.31716 13.5344 7.49985C13.5344 5.68253 13.5261 5.45506 13.4943 4.74084C13.4608 4.02914 13.3479 3.5424 13.1832 3.11756C13.0156 2.67083 12.7521 2.2663 12.4112 1.9325C12.0774 1.59161 11.6729 1.32811 11.2262 1.16058C10.7997 0.994988 10.3129 0.882086 9.60123 0.849469C8.88702 0.817689 8.66038 0.809326 6.84223 0.809326H6.8439ZM6.24426 2.01529H6.84474C8.63111 2.01529 8.84269 2.02115 9.54771 2.05376C10.2 2.08303 10.5546 2.19259 10.7905 2.28375C11.1024 2.40501 11.3257 2.55053 11.5599 2.7847C11.794 3.01887 11.9387 3.24133 12.06 3.55411C12.152 3.78912 12.2607 4.14371 12.29 4.79604C12.3226 5.50105 12.3293 5.71264 12.3293 7.49817C12.3293 9.2837 12.3226 9.49613 12.29 10.2011C12.2607 10.8535 12.1512 11.2072 12.06 11.4431C11.952 11.7332 11.7809 11.9957 11.559 12.2116C11.3249 12.4458 11.1024 12.5905 10.7896 12.7118C10.5555 12.8038 10.2009 12.9125 9.54771 12.9426C8.84269 12.9744 8.63111 12.9819 6.84474 12.9819C5.05837 12.9819 4.84594 12.9744 4.14093 12.9426C3.48861 12.9125 3.13484 12.8038 2.899 12.7118C2.60866 12.6041 2.34586 12.4333 2.12959 12.2116C1.90736 11.9955 1.73596 11.7327 1.6278 11.4422C1.53665 11.2072 1.42709 10.8526 1.39782 10.2003C1.36604 9.49529 1.35935 9.2837 1.35935 7.4965C1.35935 5.70929 1.36604 5.49938 1.39782 4.79437C1.42793 4.14204 1.53665 3.78744 1.62864 3.5516C1.74991 3.23966 1.89543 3.01636 2.12959 2.78219C2.36376 2.54802 2.58622 2.40334 2.899 2.28208C3.13484 2.19008 3.48861 2.08136 4.14093 2.05125C4.75813 2.02282 4.99732 2.01446 6.24426 2.01362V2.01529ZM10.4158 3.12592C10.3104 3.12592 10.206 3.14669 10.1086 3.18703C10.0112 3.22738 9.92264 3.28652 9.84809 3.36107C9.77354 3.43562 9.7144 3.52413 9.67405 3.62154C9.63371 3.71895 9.61294 3.82335 9.61294 3.92878C9.61294 4.03421 9.63371 4.13861 9.67405 4.23602C9.7144 4.33343 9.77354 4.42194 9.84809 4.49649C9.92264 4.57104 10.0112 4.63018 10.1086 4.67053C10.206 4.71088 10.3104 4.73164 10.4158 4.73164C10.6287 4.73164 10.8329 4.64706 10.9835 4.49649C11.1341 4.34592 11.2187 4.14171 11.2187 3.92878C11.2187 3.71585 11.1341 3.51164 10.9835 3.36107C10.8329 3.21051 10.6287 3.12592 10.4158 3.12592ZM6.84474 4.06426C6.389 4.05715 5.93641 4.14077 5.51331 4.31026C5.0902 4.47974 4.70504 4.7317 4.38024 5.05147C4.05545 5.37124 3.79751 5.75242 3.62145 6.17283C3.44538 6.59324 3.35471 7.04448 3.35471 7.50026C3.35471 7.95605 3.44538 8.40729 3.62145 8.82769C3.79751 9.24811 4.05545 9.62929 4.38024 9.94906C4.70504 10.2688 5.0902 10.5208 5.51331 10.6903C5.93641 10.8598 6.389 10.9434 6.84474 10.9363C7.74674 10.9222 8.60703 10.554 9.23992 9.91115C9.87282 9.26831 10.2275 8.40237 10.2275 7.50026C10.2275 6.59815 9.87282 5.73222 9.23992 5.08938C8.60703 4.44653 7.74674 4.07834 6.84474 4.06426ZM6.84474 5.26939C7.13764 5.26939 7.42768 5.32709 7.69829 5.43918C7.9689 5.55127 8.21479 5.71556 8.4219 5.92268C8.62902 6.12979 8.79331 6.37568 8.90541 6.64629C9.0175 6.9169 9.07519 7.20694 9.07519 7.49985C9.07519 7.79275 9.0175 8.08279 8.90541 8.3534C8.79331 8.62401 8.62902 8.8699 8.4219 9.07701C8.21479 9.28413 7.9689 9.44842 7.69829 9.56051C7.42768 9.6726 7.13764 9.7303 6.84474 9.7303C6.25318 9.7303 5.68586 9.4953 5.26757 9.07701C4.84928 8.65872 4.61428 8.0914 4.61428 7.49985C4.61428 6.90829 4.84928 6.34097 5.26757 5.92268C5.68586 5.50439 6.25318 5.26939 6.84474 5.26939Z" fill="#083B46"/>
</svg>
