<svg width="20" height="20" viewBox="0 0 20 20" fill="none" xmlns="http://www.w3.org/2000/svg">
<g id="Link" clip-path="url(#clip0_931_2741)">
<path id="Vector" d="M0.732422 15.7806C0.880833 15.8053 1.03234 15.8208 1.18693 15.827C1.34153 15.8332 1.49921 15.8362 1.65999 15.8362C2.57519 15.8362 3.44401 15.6878 4.26646 15.391C5.0889 15.0942 5.83405 14.6861 6.5019 14.1666C5.64854 14.1543 4.89102 13.8945 4.22936 13.3875C3.56769 12.8804 3.11318 12.2373 2.86583 11.4581C2.97714 11.4829 3.09463 11.5014 3.21831 11.5138C3.34198 11.5261 3.46566 11.5323 3.58933 11.5323C3.77485 11.5323 3.95108 11.52 4.11805 11.4952C4.28501 11.4705 4.45506 11.4396 4.62821 11.4025C3.73774 11.217 2.9926 10.7686 2.39277 10.0575C1.79294 9.34635 1.49303 8.52082 1.49303 7.58088C1.49303 7.56851 1.49303 7.55924 1.49303 7.55305C1.49303 7.54687 1.49303 7.5376 1.49303 7.52523C1.75275 7.67364 2.03102 7.78804 2.32784 7.86843C2.62466 7.94882 2.93385 7.9952 3.25541 8.00756C2.73597 7.66127 2.31856 7.20367 2.00319 6.63476C1.68782 6.06585 1.53013 5.44129 1.53013 4.76107C1.53013 4.41478 1.57651 4.07467 1.66927 3.74075C1.76202 3.40682 1.88879 3.09763 2.04957 2.81318C2.5319 3.39446 3.06989 3.92626 3.66354 4.4086C4.25718 4.89093 4.89411 5.30834 5.57433 5.66082C6.25455 6.01329 6.97496 6.29465 7.73556 6.5049C8.49617 6.71515 9.27842 6.83883 10.0823 6.87593C10.0576 6.73989 10.0359 6.59766 10.0174 6.44925C9.99883 6.30084 9.98956 6.14624 9.98956 5.98546C9.98956 5.45366 10.0916 4.94968 10.2957 4.47353C10.4997 3.99738 10.778 3.58306 11.1305 3.23059C11.4829 2.87811 11.8942 2.59984 12.3641 2.39577C12.8341 2.19171 13.3412 2.08968 13.8853 2.08968C14.4419 2.08968 14.9675 2.20098 15.4622 2.4236C15.9569 2.64622 16.3774 2.94922 16.7237 3.33262C17.1689 3.24605 17.5987 3.12237 18.013 2.96159C18.4273 2.80081 18.8262 2.60911 19.2096 2.3865C19.0612 2.83173 18.8386 3.23986 18.5417 3.61089C18.2449 3.98192 17.8924 4.29111 17.4843 4.53846C17.8801 4.48899 18.2666 4.41169 18.6438 4.30657C19.021 4.20144 19.3827 4.07467 19.729 3.92626C19.4693 4.30966 19.1756 4.67141 18.8478 5.01152C18.5201 5.35163 18.1645 5.66391 17.7811 5.94836C17.7811 6.02257 17.7842 6.10296 17.7904 6.18953C17.7966 6.2761 17.7997 6.36268 17.7997 6.44925C17.7997 7.73548 17.5585 9.03716 17.0762 10.3543C16.5938 11.6715 15.8827 12.8618 14.9428 13.9255C14.0028 14.9891 12.8434 15.8579 11.4644 16.5319C10.0854 17.206 8.49926 17.543 6.70596 17.543C6.16179 17.543 5.6238 17.5028 5.09199 17.4224C4.56019 17.342 4.04384 17.2276 3.54295 17.0792C3.04207 16.9308 2.55664 16.7453 2.08667 16.5226C1.6167 16.3 1.16529 16.0527 0.732422 15.7806Z" fill="#083B46"/>
</g>
<defs>
<clipPath id="clip0_931_2741">
<rect width="19.516" height="19.516" fill="white" transform="matrix(1 0 0 -1 0.472656 19.75)"/>
</clipPath>
</defs>
</svg>
