<svg width="37" height="45" viewBox="0 0 37 45" fill="none" xmlns="http://www.w3.org/2000/svg">
<path id="ICON" d="M15.1225 30.2831H21.8767V24.7139H27.5052V18.0307H21.8767V12.4614H15.1225V18.0307H9.49394V24.7139H15.1225V30.2831ZM18.4996 44.7633C13.2838 43.4638 8.97836 40.5024 5.58323 35.8792C2.1866 31.2574 0.488281 26.1247 0.488281 20.4812V6.89213L18.4996 0.208984L36.5109 6.89213V20.4812C36.5109 26.1247 34.8133 31.2574 31.4182 35.8792C28.0216 40.5024 23.7154 43.4638 18.4996 44.7633ZM18.4996 40.0851C22.402 38.8598 25.6291 36.4094 28.1807 32.7336C30.7323 29.0579 32.0081 24.9738 32.0081 20.4812V9.95524L18.4996 4.94288L4.99111 9.95524V20.4812C4.99111 24.9738 6.26691 29.0579 8.81851 32.7336C11.3701 36.4094 14.5971 38.8598 18.4996 40.0851Z" fill="#4FC9E0"/>
</svg>
