<svg width="43" height="39" viewBox="0 0 43 39" fill="none" xmlns="http://www.w3.org/2000/svg">
<path id="ICON" d="M8.22824 38.7623L0.644531 17.9071L10.1242 12.2193V0.84375H17.7079V12.2193L27.1875 17.9071L19.6038 38.7623H8.22824ZM30.9794 38.7623C30.4422 38.7623 29.9919 38.5806 29.6285 38.2172C29.2651 37.8538 29.0834 37.4036 29.0834 36.8664C29.0834 36.3292 29.2651 35.8789 29.6285 35.5155C29.9919 35.1521 30.4422 34.9704 30.9794 34.9704H36.6672V31.1786H30.9794C30.4422 31.1786 29.9919 30.9969 29.6285 30.6335C29.2651 30.2701 29.0834 29.8198 29.0834 29.2827C29.0834 28.7455 29.2651 28.2952 29.6285 27.9318C29.9919 27.5684 30.4422 27.3867 30.9794 27.3867H36.6672V23.5949H30.9794C30.4422 23.5949 29.9919 23.4132 29.6285 23.0498C29.2651 22.6864 29.0834 22.2361 29.0834 21.699C29.0834 21.1618 29.2651 20.7115 29.6285 20.3481C29.9919 19.9847 30.4422 19.803 30.9794 19.803H36.6672V16.0112H30.9794C30.4422 16.0112 29.9919 15.8295 29.6285 15.4661C29.2651 15.1027 29.0834 14.6524 29.0834 14.1152C29.0834 13.5781 29.2651 13.1278 29.6285 12.7644C29.9919 12.401 30.4422 12.2193 30.9794 12.2193H36.6672V8.42746H30.9794C30.4422 8.42746 29.9919 8.24577 29.6285 7.88238C29.2651 7.519 29.0834 7.06871 29.0834 6.53153C29.0834 5.99435 29.2651 5.54407 29.6285 5.18068C29.9919 4.8173 30.4422 4.63561 30.9794 4.63561H38.5631C39.6058 4.63561 40.4985 5.00689 41.2411 5.74946C41.9837 6.49203 42.3549 7.3847 42.3549 8.42746V34.9704C42.3549 36.0132 41.9837 36.9059 41.2411 37.6484C40.4985 38.391 39.6058 38.7623 38.5631 38.7623H30.9794ZM10.8825 34.9704H16.9495L22.5425 19.5186L16.6651 16.0112H11.1669L5.28955 19.5186L10.8825 34.9704Z" fill="#4FC9E0"/>
</svg>
