<svg width="18" height="15" viewBox="0 0 18 15" fill="none" xmlns="http://www.w3.org/2000/svg">
<path id="Vector" d="M15.9942 1.50364C15.0686 0.653189 13.8417 0.134124 12.535 0.0402036C11.2283 -0.0537164 9.92807 0.283702 8.86912 0.99151C7.75815 0.234227 6.37534 -0.109161 4.99917 0.030495C3.62299 0.170151 2.35566 0.782479 1.4524 1.74417C0.549132 2.70586 0.0770223 3.94548 0.13114 5.21339C0.185258 6.48131 0.761584 7.68335 1.74406 8.57744L7.16644 13.5547C7.62051 13.9642 8.23205 14.1938 8.86912 14.1938C9.5062 14.1938 10.1177 13.9642 10.5718 13.5547L15.9942 8.57744C17.0137 7.63741 17.5859 6.36589 17.5859 5.04054C17.5859 3.71518 17.0137 2.44367 15.9942 1.50364V1.50364ZM14.763 7.47316L9.34064 12.4424C9.27893 12.4995 9.20549 12.5448 9.12456 12.5758C9.04363 12.6067 8.95681 12.6226 8.86912 12.6226C8.78144 12.6226 8.69462 12.6067 8.61369 12.5758C8.53275 12.5448 8.45932 12.4995 8.39761 12.4424L2.97523 7.44915C2.29045 6.80766 1.907 5.94594 1.907 5.04854C1.907 4.15114 2.29045 3.28942 2.97523 2.64793C3.67303 2.01656 4.61414 1.66254 5.59474 1.66254C6.57533 1.66254 7.51645 2.01656 8.21425 2.64793C8.29542 2.72293 8.39199 2.78246 8.4984 2.82309C8.6048 2.86371 8.71893 2.88463 8.8342 2.88463C8.94947 2.88463 9.06359 2.86371 9.17 2.82309C9.2764 2.78246 9.37297 2.72293 9.45415 2.64793C10.1519 2.01656 11.0931 1.66254 12.0737 1.66254C13.0542 1.66254 13.9954 2.01656 14.6932 2.64793C15.3874 3.28101 15.7834 4.13806 15.7965 5.03549C15.8095 5.93291 15.4385 6.79933 14.763 7.44915V7.47316Z" fill="#E2315C"/>
</svg>
