<svg width="20" height="13" viewBox="0 0 20 13" fill="none" xmlns="http://www.w3.org/2000/svg">
<g id="Group 198">
<path id="Vector" d="M9.64363 1C6.60637 1 3.49078 2.611 1.03805 5.83301C0.968045 5.92599 0.929679 6.0359 0.927806 6.14886C0.925934 6.26181 0.960638 6.37274 1.02753 6.46763C2.91208 9.17108 5.98598 11.2853 9.64363 11.2853C13.2615 11.2853 16.3986 9.16465 18.2866 6.45513C18.3519 6.3621 18.3867 6.25381 18.3867 6.14318C18.3867 6.03255 18.3519 5.92425 18.2866 5.83122C16.3943 3.15277 13.2343 1 9.64363 1Z" stroke="#526AE9" stroke-width="1.5" stroke-linecap="round" stroke-linejoin="round"/>
<path id="Vector_2" d="M9.65662 8.99921C11.3784 8.99921 12.7742 7.72007 12.7742 6.14218C12.7742 4.56429 11.3784 3.28516 9.65662 3.28516C7.93484 3.28516 6.53906 4.56429 6.53906 6.14218C6.53906 7.72007 7.93484 8.99921 9.65662 8.99921Z" stroke="#526AE9" stroke-width="1.5" stroke-miterlimit="10"/>
</g>
</svg>
